<svg aria-hidden="true" style="position: absolute; width: 0; height: 0; overflow: hidden;" version="1.1" xmlns="http://www.w3.org/2000/svg" xmlns:xlink="http://www.w3.org/1999/xlink">
<defs>
<symbol id="icon-about" viewBox="0 0 32 32">
<path d="M20.736 10.603c2.776 0.264 4.848-2.32 5.096-5.048 0.296-2.92-1.384-5.248-4.008-5.528-2.712-0.296-4.816 1.84-5.048 4.576-0.336 2.656 1.24 5.72 3.96 6zM31.119 11.627c-0.68-0.96-1.712-1.6-2.904-1.808-2.624-0.448-4.888 1.312-5.384 4.176-0.504 2.68 0.872 5.72 3.6 6.192 2.72 0.464 5.056-1.992 5.464-4.64 0.256-1.464-0.024-2.856-0.776-3.92zM11.441 10.603c-1.080 0.112-2.128-0.224-3.016-0.944-3.32-2.68-2.76-9.151 1.92-9.631 4.52-0.44 6.328 5.096 4.224 8.487-0.736 1.192-1.872 1.952-3.128 2.088zM16.056 13.499c-4.84 0.064-9.343 10.127-9.559 13.583 0.016 4.776 4.976 4.968 9.615 4.912h0.008c0.363-0.007 0.723-0.010 1.079-0.014h0c3.049-0.030 5.829-0.057 7.512-2.034 0.6-0.752 0.904-1.712 0.904-2.864-0.208-3.416-4.752-13.543-9.559-13.583zM9.153 14.059c0.28 1.616-0.048 3.232-0.904 4.44-0.672 0.952-1.632 1.576-2.696 1.76-2.728 0.464-5.064-1.984-5.464-4.64-0.248-1.472 0.024-2.864 0.776-3.928 0.68-0.96 1.712-1.608 2.904-1.808 2.624-0.456 4.888 1.304 5.384 4.176z"></path>
</symbol>
<symbol id="icon-union-04" viewBox="0 0 32 32">
<path d="M28.176 3.828l3.552 3.552c0.36 0.368 0.36 0.96 0 1.328-0.184 0.184-0.424 0.272-0.664 0.272s-0.48-0.088-0.664-0.272l-2.888-2.896-2.224 2.224 1.112 1.112c1.344 1.352 1.344 3.536 0 4.879l-1.768 1.768-2.528 2.536-2.792-2.792c-0.368-0.368-0.96-0.368-1.328 0s-0.368 0.96 0 1.328l2.792 2.792-1.664 1.664-4.216-4.216c-0.368-0.368-0.96-0.368-1.328 0s-0.368 0.96 0 1.328l4.216 4.216-1.664 1.664-2.792-2.792c-0.368-0.368-0.96-0.368-1.328 0s-0.368 0.96 0 1.328l2.792 2.792-0.76 0.76c-0.648 0.648-1.512 1.008-2.44 1.008s-1.792-0.36-2.44-1.008l-1.112-1.112-6.44 6.439c-0.184 0.184-0.424 0.272-0.664 0.272s-0.48-0.088-0.664-0.272c-0.368-0.368-0.368-0.96 0-1.328l6.44-6.431-1.112-1.112c-0.648-0.648-1.008-1.52-1.008-2.44 0-0.928 0.36-1.792 1.008-2.44l12.368-12.374c0.648-0.648 1.52-1.008 2.44-1.008 0.928 0 1.792 0.36 2.44 1.008l1.112 1.112 2.224-2.224-2.888-2.888c-0.368-0.368-0.368-0.96 0-1.328s0.96-0.368 1.328 0l3.552 3.552zM23.96 13.818l1.112-1.112c0.616-0.616 0.616-1.616 0-2.224l-3.552-3.552c-0.296-0.296-0.688-0.456-1.112-0.456s-0.816 0.16-1.112 0.456l-1.112 1.112 5.776 5.775zM25.256 21.681c0.176-0.176 0.272-0.416 0.272-0.664s-0.104-0.488-0.272-0.664c-0.176-0.176-0.416-0.272-0.664-0.272s-0.488 0.104-0.664 0.272c-0.176 0.176-0.272 0.416-0.272 0.664s0.104 0.488 0.272 0.664c0.176 0.176 0.416 0.272 0.664 0.272s0.488-0.096 0.664-0.272zM22.792 22.473c0 0.248-0.096 0.488-0.272 0.664s-0.416 0.272-0.664 0.272c-0.248 0-0.488-0.096-0.664-0.272-0.168-0.176-0.272-0.416-0.272-0.664s0.096-0.496 0.272-0.664c0.176-0.168 0.416-0.272 0.664-0.272s0.488 0.096 0.664 0.272c0.168 0.176 0.272 0.416 0.272 0.664zM20.888 29.424c0-2.84 2.312-5.151 5.152-5.151s5.152 2.312 5.152 5.151c0 0.504-0.144 0.992-0.416 1.408-0.48 0.728-1.288 1.168-2.16 1.168-0.632 0-1.12-0.144-1.552-0.272l-0.024-0.007c-0.349-0.101-0.64-0.185-1-0.185-0.368 0-0.672 0.088-1.024 0.192-0.432 0.128-0.92 0.272-1.552 0.272-0.872 0-1.68-0.44-2.16-1.168-0.272-0.416-0.416-0.904-0.416-1.408zM28.424 21.017c0 0.248-0.096 0.488-0.272 0.664-0.168 0.176-0.416 0.28-0.664 0.272-0.248 0-0.488-0.096-0.664-0.272-0.168-0.176-0.272-0.416-0.272-0.664s0.096-0.488 0.272-0.664c0.176-0.168 0.416-0.272 0.664-0.272s0.488 0.096 0.664 0.272c0.176 0.176 0.272 0.416 0.272 0.664zM30.888 23.137c0.176-0.176 0.272-0.416 0.272-0.664s-0.104-0.488-0.272-0.664c-0.176-0.176-0.416-0.272-0.664-0.272s-0.488 0.104-0.664 0.272c-0.176 0.168-0.272 0.416-0.272 0.664s0.104 0.488 0.272 0.664c0.176 0.176 0.416 0.272 0.664 0.272s0.488-0.096 0.664-0.272z"></path>
</symbol>
<symbol id="icon-union-03" viewBox="0 0 40 32">
<path d="M13.092 0h13.807c2.378 0 4.31 1.904 4.318 4.249v17.94c0 3.369-2.776 6.106-6.193 6.106-2.070 0-3.896-1-5.024-2.537-1.128 1.536-2.963 2.537-5.024 2.537-3.417 0-6.193-2.737-6.193-6.106v-17.94c0-2.345 1.932-4.249 4.31-4.249zM14.148 11.875c0.219 0.216 0.52 0.336 0.828 0.336s0.617-0.128 0.828-0.336c0.219-0.216 0.341-0.512 0.341-0.816s-0.122-0.6-0.341-0.816c-0.219-0.216-0.519-0.336-0.828-0.336s-0.609 0.12-0.828 0.336c-0.219 0.216-0.341 0.512-0.341 0.816s0.122 0.6 0.341 0.816zM22.175 21.95l1.258-2.145c0.52-0.888 0.568-1.816 0.13-2.561-0.43-0.736-1.274-1.16-2.313-1.16h-2.508c-1.039 0-1.883 0.424-2.313 1.16-0.43 0.744-0.382 1.672 0.138 2.561l1.258 2.145c0.52 0.888 1.315 1.4 2.175 1.4s1.656-0.512 2.175-1.4zM25.024 12.211c0.308 0 0.609-0.12 0.828-0.336 0.211-0.216 0.341-0.52 0.341-0.816 0-0.304-0.122-0.6-0.341-0.816s-0.52-0.336-0.828-0.336c-0.308 0-0.609 0.12-0.828 0.336s-0.341 0.512-0.341 0.816 0.122 0.6 0.341 0.816c0.219 0.216 0.519 0.336 0.828 0.336zM33.555 5.497l6.169 7.29c0.179 0.208 0.276 0.472 0.276 0.744 0 3.025-2.5 5.489-5.568 5.489-0.3 0-0.592-0.024-0.877-0.072v-13.451zM5.568 19.021c-3.068 0-5.568-2.465-5.568-5.489 0-0.272 0.097-0.536 0.276-0.744l6.169-7.29v13.451c-0.284 0.048-0.576 0.072-0.877 0.072zM20 28.991c-0.341 0.248-0.698 0.464-1.071 0.656-0.917 0.472-1.924 0.776-2.946 0.896 1.096 0.92 2.508 1.456 4.018 1.456 1.518 0 2.93-0.544 4.018-1.456-1.031-0.12-2.029-0.424-2.946-0.896-0.373-0.192-0.73-0.408-1.071-0.656z"></path>
</symbol>
<symbol id="icon-union-02" viewBox="0 0 32 32">
<path d="M11.648 9.912c1.088 0 2.144-0.568 2.88-1.552 0.688-0.92 1.072-2.128 1.072-3.4s-0.376-2.48-1.072-3.4c-0.736-0.992-1.792-1.56-2.88-1.56s-2.144 0.568-2.88 1.552c-0.688 0.92-1.072 2.128-1.072 3.4s0.376 2.48 1.072 3.4c0.736 0.992 1.792 1.56 2.88 1.56zM16 12.56c-3.632 0-7.040 1.416-9.608 3.976s-3.976 5.976-3.976 9.608c0 1.144 0.328 2.248 0.952 3.2 1.088 1.664 2.92 2.656 4.904 2.656 1.632 0 2.904-0.376 4.128-0.744 1.152-0.344 2.24-0.664 3.6-0.664s2.448 0.32 3.6 0.664c1.232 0.368 2.504 0.744 4.128 0.744 1.984 0 3.816-0.992 4.904-2.656 0.624-0.952 0.952-2.064 0.952-3.2 0-3.632-1.416-7.040-3.976-9.608-2.568-2.56-5.976-3.976-9.608-3.976zM19.016 22.464h-2.072v2.072c0 0.52-0.416 0.936-0.936 0.936s-0.936-0.416-0.936-0.936v-2.072h-2.072c-0.52 0-0.936-0.416-0.936-0.936s0.416-0.936 0.936-0.936h2.072v-2.072c0-0.52 0.416-0.936 0.936-0.936s0.936 0.416 0.936 0.936v2.072h2.072c0.52 0 0.936 0.416 0.936 0.936s-0.424 0.936-0.936 0.936zM23.232 8.36c-0.736 0.984-1.792 1.552-2.88 1.552s-2.144-0.568-2.88-1.56c-0.688-0.92-1.072-2.128-1.072-3.4s0.384-2.48 1.072-3.4c0.736-0.984 1.792-1.552 2.88-1.552s2.136 0.568 2.88 1.56c0.696 0.92 1.072 2.128 1.072 3.4s-0.384 2.48-1.072 3.4zM31.080 5.704c-0.648-0.864-1.568-1.352-2.528-1.352s-1.88 0.496-2.528 1.352c-0.592 0.792-0.92 1.832-0.92 2.928s0.328 2.136 0.92 2.928c0.648 0.864 1.568 1.352 2.528 1.352s1.88-0.496 2.528-1.352c0.592-0.792 0.92-1.832 0.92-2.92 0-1.096-0.328-2.136-0.92-2.936zM6.896 8.64c0 1.096-0.328 2.136-0.92 2.928-0.648 0.856-1.568 1.352-2.528 1.352s-1.88-0.488-2.528-1.352c-0.592-0.792-0.92-1.832-0.92-2.928s0.328-2.136 0.92-2.936c0.648-0.856 1.568-1.352 2.528-1.352s1.88 0.496 2.528 1.36c0.592 0.792 0.92 1.832 0.92 2.928z"></path>
</symbol>
<symbol id="icon-union-01" viewBox="0 0 33 32">
<path d="M28.192 3.824c1.080 0.2 2.056 0.752 2.768 1.616 2.232 2.72 0.768 6.864-2.648 7.568-0.388 0.079-0.812 0.083-1.269 0.088-1.301 0.014-2.866 0.031-4.619 1.784l-0.44 0.44-5.304-5.304 0.464-0.464c1.416-1.416 1.76-3.448 1.752-4.848 0-4.328 5.184-6.176 8.008-3.352 0.68 0.68 1.12 1.544 1.288 2.472zM11.368 15.32l3.984-3.976 5.304 5.304-3.976 3.976-5.312-5.304zM10.048 16.648l-0.448 0.44c-1.256 1.256-2.912 1.952-4.424 1.792-4.232-0.44-6.728 4.456-4.112 7.64 0.712 0.864 1.688 1.416 2.768 1.616 0.168 0.928 0.608 1.792 1.288 2.472 2.952 2.952 8.008 0.856 8.008-3.352-0.008-1.4 0.336-3.432 1.744-4.848l0.464-0.464-5.288-5.296zM20.656 19.304l3.864 3.864c0.248 0.24 0.336 0.6 0.232 0.928-0.096 0.328-0.376 0.584-0.712 0.648l-2.704 0.544-0.544 2.704c-0.072 0.336-0.32 0.616-0.648 0.712-0.328 0.104-0.688 0.016-0.936-0.232l-3.68-3.68c0.168-0.376 0.376-0.736 0.68-1.040l4.448-4.448z"></path>
</symbol>
</defs>
</svg>
